HIERARCHY
ROOT Hips
{
	OFFSET 0.000000 0.000000 0.000000
	CHANNELS 6 Xposition Yposition Zposition Xrotation Yrotation Zrotation
	JOINT LeftUpLeg_virtual
	{
		OFFSET 0.000000 0.000000 0.000000
		CHANNELS 3 Xrotation Yrotation Zrotation
		JOINT LeftUpLeg
		{
			OFFSET 11.394100 -6.187798 -0.413800
			CHANNELS 3 Xrotation Yrotation Zrotation
			JOINT LeftLeg
			{
				OFFSET 0.430247 -32.302673 3.732800
				CHANNELS 3 Xrotation Yrotation Zrotation
				JOINT LeftFoot
				{
					OFFSET -0.430247 -48.264931 -6.423300
					CHANNELS 3 Xrotation Yrotation Zrotation
					JOINT LeftToeBase
					{
						OFFSET 4.230900 -16.068199 23.438400
						CHANNELS 3 Xrotation Yrotation Zrotation
						JOINT LeftToe_End
						{
							OFFSET 4.510700 0.695400 19.974600
							CHANNELS 3 Xrotation Yrotation Zrotation
							End Site
							{
								OFFSET 0 0 0
							}
						}
					}
				}
			}
		}
	}
	JOINT RightUpLeg_virtual
	{
		OFFSET 0.000000 0.000000 0.000000
		CHANNELS 3 Xrotation Yrotation Zrotation
		JOINT RightUpLeg
		{
			OFFSET -11.333700 -6.187798 -0.413800
			CHANNELS 3 Xrotation Yrotation Zrotation
			JOINT RightLeg
			{
				OFFSET -0.430392 -32.302628 3.733000
				CHANNELS 3 Xrotation Yrotation Zrotation
				JOINT RightFoot
				{
					OFFSET 0.430392 -48.264973 -6.423500
					CHANNELS 3 Xrotation Yrotation Zrotation
					JOINT RightToeBase
					{
						OFFSET -4.230900 -16.068199 23.438400
						CHANNELS 3 Xrotation Yrotation Zrotation
						JOINT RightToe_End
						{
							OFFSET -4.510700 0.695400 19.974600
							CHANNELS 3 Xrotation Yrotation Zrotation
							End Site
							{
								OFFSET 0 0 0
							}
						}
					}
				}
			}
		}
	}
	JOINT Spine_virtual
	{
		OFFSET 0.000000 0.000000 0.000000
		CHANNELS 3 Xrotation Yrotation Zrotation
		JOINT Spine
		{
			OFFSET -0.002400 12.777504 0.315300
			CHANNELS 3 Xrotation Yrotation Zrotation
			JOINT Spine1
			{
				OFFSET -0.002067 5.816869 0.032633
				CHANNELS 3 Xrotation Yrotation Zrotation
				JOINT Spine1_split
				{
					OFFSET -0.002067 5.816869 0.032633
					CHANNELS 3 Xrotation Yrotation Zrotation
					JOINT Spine2
					{
						OFFSET -0.002067 5.816869 0.032633
						CHANNELS 3 Xrotation Yrotation Zrotation
						JOINT Neck_virtual
						{
							OFFSET 0.000000 0.000000 0.000000
							CHANNELS 3 Xrotation Yrotation Zrotation
							JOINT Neck
							{
								OFFSET -0.003700 21.199493 -0.826900
								CHANNELS 3 Xrotation Yrotation Zrotation
								JOINT Head
								{
									OFFSET 0.000000 20.442200 4.834800
									CHANNELS 3 Xrotation Yrotation Zrotation
									JOINT HeadTop_End
									{
										OFFSET 0.000000 34.668396 4.968400
										CHANNELS 3 Xrotation Yrotation Zrotation
										End Site
										{
											OFFSET 0 0 0
										}
									}
								}
							}
						}
						JOINT LeftShoulder_virtual
						{
							OFFSET 0.000000 0.000000 0.000000
							CHANNELS 3 Xrotation Yrotation Zrotation
							JOINT LeftShoulder
							{
								OFFSET 3.288150 8.794197 -1.372250
								CHANNELS 3 Xrotation Yrotation Zrotation
								JOINT LeftShoulder_split
								{
									OFFSET 3.288150 8.794197 -1.372250
									CHANNELS 3 Xrotation Yrotation Zrotation
									JOINT LeftArm
									{
										OFFSET 11.953299 -2.279007 -0.146200
										CHANNELS 3 Xrotation Yrotation Zrotation
										JOINT LeftForeArm
										{
											OFFSET 18.448900 0.000000 0.000000
											CHANNELS 3 Xrotation Yrotation Zrotation
											JOINT LeftHand
											{
												OFFSET 29.527798 0.000000 0.000000
												CHANNELS 3 Xrotation Yrotation Zrotation
												End Site
												{
													OFFSET 0 0 0
												}
											}
										}
									}
								}
							}
						}
						JOINT RightShoulder_virtual
						{
							OFFSET 0.000000 0.000000 0.000000
							CHANNELS 3 Xrotation Yrotation Zrotation
							JOINT RightShoulder
							{
								OFFSET -3.249400 8.794197 -1.372250
								CHANNELS 3 Xrotation Yrotation Zrotation
								JOINT RightShoulder_split
								{
									OFFSET -3.249400 8.794197 -1.372250
									CHANNELS 3 Xrotation Yrotation Zrotation
									JOINT RightArm
									{
										OFFSET -11.953299 -2.279007 -0.146200
										CHANNELS 3 Xrotation Yrotation Zrotation
										JOINT RightForeArm
										{
											OFFSET -18.448900 0.000000 0.000000
											CHANNELS 3 Xrotation Yrotation Zrotation
											JOINT RightHand
											{
												OFFSET -29.527802 0.000000 0.000000
												CHANNELS 3 Xrotation Yrotation Zrotation
												End Site
												{
													OFFSET 0 0 0
												}
											}
										}
									}
								}
							}
						}
					}
				}
			}
		}
	}
}
MOTION
Frames: 4
Frame Time: 0.03333333
3.811026 103.191467 -12.293530 0.000000 0.000000 0.000000 -4.485746 5.560998 5.300851 -18.705887 21.129443 8.099070 12.406047 3.164616 1.507179 11.359967 5.089886 -6.579946 -0.726797 -3.059443 4.042877 0.000000 0.000000 0.000000 -3.521826 4.983437 5.090626 3.202926 -12.035409 -4.587717 12.739119 -0.626222 -1.478442 -16.351136 -13.970558 13.686662 0.541674 6.480693 -14.055113 0.000000 0.000000 0.000000 -5.781650 8.639628 4.972929 4.036380 -2.668411 -0.705790 3.344218 0.928496 -1.024803 0.108253 0.132586 -0.054504 0.000000 0.000000 0.000000 4.090327 3.274604 -0.904864 3.472697 7.225678 0.461162 -16.936048 -8.068074 -13.458823 0.000000 0.000000 0.000000 2.273339 1.830273 -1.819759 -1.590431 -15.289612 -17.183074 -0.018374 -4.259878 -0.524486 5.682983 3.139379 -31.630739 11.514022 -80.372100 10.567573 0.000000 0.000000 0.000000 3.205005 2.062744 -0.858293 -6.088089 17.817389 11.903959 1.209852 -4.880968 6.283318 19.460428 28.992483 35.899054 -162.235967 78.096827 163.714935 0.000000 0.000000 0.000000 
4.133554 103.081200 -12.278786 0.000000 0.000000 0.000000 -4.493436 5.172760 5.287767 -18.743050 20.972758 8.040488 12.718681 3.100540 1.486489 11.281863 5.176926 -6.739460 -0.772217 -3.048794 3.968346 0.000000 0.000000 0.000000 -3.572554 4.990219 5.056703 3.121199 -12.401770 -4.660427 12.953964 -0.406232 -1.556185 -16.213566 -13.989855 13.861481 0.679311 6.356649 -14.025433 0.000000 0.000000 0.000000 -5.826309 8.322037 4.904567 4.135920 -2.694140 -0.724670 3.339849 0.878625 -1.006247 0.120717 0.152762 -0.051605 0.000000 0.000000 0.000000 4.061730 3.231977 -0.879313 3.546054 7.334755 0.297378 -16.752014 -7.600211 -13.389635 0.000000 0.000000 0.000000 2.246635 1.777845 -1.807121 -1.583214 -15.303261 -17.139883 0.100773 -4.204561 -0.531607 5.774836 3.391332 -31.764659 11.949978 -80.363138 11.003824 0.000000 0.000000 0.000000 3.170609 2.028812 -0.822451 -6.141423 17.872144 11.962109 1.189825 -4.748856 6.582863 19.508321 29.072932 36.115377 -161.877273 78.215911 163.317883 0.000000 0.000000 0.000000 
4.530830 102.789505 -12.227158 0.000000 0.000000 0.000000 -4.530124 4.733349 5.265819 -19.104966 20.678480 8.069619 13.702318 3.027495 1.481284 11.005820 5.382699 -7.030196 -0.980247 -2.984119 3.746820 0.000000 0.000000 0.000000 -3.609459 4.936250 5.011735 2.804797 -12.692144 -4.740148 13.682266 -0.134440 -1.718383 -16.444089 -14.212369 13.814120 0.982029 6.198669 -13.994737 0.000000 0.000000 0.000000 -5.815731 7.942922 4.817828 4.228356 -2.771220 -0.735932 3.326848 0.792601 -0.960793 0.128632 0.165144 -0.050616 0.000000 0.000000 0.000000 4.035152 3.155690 -0.829702 3.664168 7.519266 0.053077 -16.537744 -6.759390 -13.275845 0.000000 0.000000 0.000000 2.229119 1.689634 -1.763391 -1.578025 -15.348272 -17.067377 0.264914 -4.208266 -0.477122 6.112966 3.953451 -31.916477 12.575283 -80.523463 11.628375 0.000000 0.000000 0.000000 3.146769 1.953854 -0.758446 -6.211997 17.867655 12.038073 1.233374 -4.631740 6.705718 19.455403 29.433126 36.378216 -160.952711 78.415749 162.360823 0.000000 0.000000 0.000000 
4.945519 102.354736 -12.177914 0.000000 0.000000 0.000000 -4.594864 4.340902 5.243122 -19.698523 20.275174 8.126403 15.106300 2.961912 1.487473 10.498165 5.694185 -7.439048 -1.262867 -2.864893 3.468125 0.000000 0.000000 0.000000 -3.651683 4.712686 4.980016 2.213178 -12.863277 -4.845904 14.873063 0.227650 -1.942522 -16.866925 -14.576740 13.682878 1.303181 6.030141 -13.990446 0.000000 0.000000 0.000000 -5.751374 7.559680 4.731795 4.298298 -2.893719 -0.751493 3.296694 0.680046 -0.896562 0.121919 0.178714 -0.049689 0.000000 0.000000 0.000000 4.012773 3.053984 -0.763876 3.817913 7.755385 -0.241748 -16.349197 -5.588546 -13.123724 0.000000 0.000000 0.000000 2.224355 1.575121 -1.691969 -1.572923 -15.427374 -16.964913 0.417457 -4.267576 -0.432750 6.634756 4.802078 -32.066454 13.374567 -80.843280 12.430377 0.000000 0.000000 0.000000 3.126638 1.844046 -0.672816 -6.282449 17.814351 12.110684 1.326020 -4.614355 6.681678 19.299451 29.950919 36.671866 -159.514342 78.657497 160.894463 0.000000 0.000000 0.000000 
